PathFileType	4	(X/Y/Z)	C:\Users\xlb\Desktop\20210112\20210112\bx_n_10_501.trc
DataRate	CameraRate	NumFrames	NumMarkers	Units	OrigDataRate	OrigDataStartFrame	OrigNumFrames
50.00	50.00	       7	43	mm	50.00	110	       436
Frame#	Time	Top.Head			R.Acromium			L.Acromium			Sternum			R.ASIS			L.ASIS			V.Sacral			R.Thigh.Upper			R.Thigh.Front			R.Thigh.Rear			R.Knee.Lat			R.Knee.Med			R.Shank.Upper			R.Shank.Front			R.Shank.Rear			R.Ankle.Lat			R.Midfoot.Lat			R.Toe.Lat			R.Toe.Tip			R.Toe.Med			R.Ankle.Med			R.Midfoot.Sup			R.Heel			L.Thigh.Upper			L.Thigh.Front			L.Thigh.Rear			L.Knee.Lat			L.Knee.Med			L.Shank.Upper			L.Shank.Front			L.Shank.Rear			L.Ankle.Lat			L.Midfoot.Lat			L.Toe.Lat			L.Toe.Tip			L.Toe.Med			L.Ankle.Med			L.Midfoot.Sup			L.Heel			origin1 front left			origin2 front right			origin 3 back right			origin 4 back leftt			
		X1	Y1	Z1	X2	Y2	Z2	X3	Y3	Z3	X4	Y4	Z4	X5	Y5	Z5	X6	Y6	Z6	X7	Y7	Z7	X8	Y8	Z8	X9	Y9	Z9	X10	Y10	Z10	X11	Y11	Z11	X12	Y12	Z12	X13	Y13	Z13	X14	Y14	Z14	X15	Y15	Z15	X16	Y16	Z16	X17	Y17	Z17	X18	Y18	Z18	X19	Y19	Z19	X20	Y20	Z20	X21	Y21	Z21	X22	Y22	Z22	X23	Y23	Z23	X24	Y24	Z24	X25	Y25	Z25	X26	Y26	Z26	X27	Y27	Z27	X28	Y28	Z28	X29	Y29	Z29	X30	Y30	Z30	X31	Y31	Z31	X32	Y32	Z32	X33	Y33	Z33	X34	Y34	Z34	X35	Y35	Z35	X36	Y36	Z36	X37	Y37	Z37	X38	Y38	Z38	X39	Y39	Z39	X40	Y40	Z40	X41	Y41	Z41	X42	Y42	Z42	X43	Y43	Z43	

110	2.180	-178.83170	139.76118	1381.12427	-380.40073	-44.01351	1192.36096	-413.44067	282.67752	1181.22388	-524.86536	100.75111	1021.39105	-776.94714	-10.32015	991.93359	-777.46149	232.92717	1011.79303	-953.20520	89.37114	1091.14355	-849.59235	-79.11566	861.46313	-760.24377	-7.96735	808.51361	-841.51068	-67.47568	745.68298	-818.84039	-38.53506	608.90491	-799.05676	71.82693	570.28058	-814.32166	-36.11835	561.54932	-754.40607	15.97136	527.62677	-834.40698	-51.26885	474.19659	-761.75415	-23.80862	205.14999	-648.02637	-68.26965	161.38293	-606.75385	-75.92235	156.30859	-549.99963	-27.39016	162.48500	-598.46179	26.67867	166.42763	-726.39319	65.46507	221.40977	-673.42493	51.00420	162.25015	-793.37854	34.83220	175.28038	-873.80457	285.84055	863.04712	-766.08063	206.62343	814.64746	-848.92767	279.14288	728.63257	-851.02039	252.97305	624.99377	-799.68988	143.09657	571.63031	-834.35052	248.42181	563.67871	-772.14282	205.05623	537.00287	-854.02686	262.48331	483.92871	-772.47186	230.29730	203.45172	-659.96582	298.21741	156.94557	-623.41180	306.74301	158.57576	-557.47675	254.33722	163.59680	-593.75513	219.01064	172.79613	-720.53308	157.46408	223.64511	-676.53326	174.69618	162.37326	-798.38647	181.27899	183.39812	-527.93634	304.02042	146.31247	-517.93073	-72.67097	142.68227	-875.79706	-78.68477	141.07234	-882.65314	295.93558	144.49429	
111	2.200	-179.57010	139.76614	1382.80823	-381.06784	-43.91933	1193.39917	-414.21124	282.88715	1182.42749	-525.43225	100.73770	1023.47827	-776.71985	-10.40757	992.29443	-777.67822	232.57707	1011.68689	-953.19543	89.20921	1091.31006	-849.18127	-79.32506	861.83221	-759.94763	-8.03081	809.02338	-841.19604	-67.42964	746.03955	-818.69849	-38.67292	609.39215	-798.75183	71.77505	570.72522	-814.07159	-36.26869	561.92139	-754.09497	15.81835	527.95245	-834.07935	-51.32951	474.60254	-761.51019	-23.86980	205.47650	-647.85669	-68.20850	161.58240	-606.62061	-75.80338	156.32326	-549.90881	-27.40765	162.49907	-598.39716	26.66389	166.40359	-726.31860	65.37058	221.67392	-673.22656	50.97388	162.43591	-793.23059	34.69116	175.48340	-873.92590	285.56390	863.24200	-766.15619	206.53484	814.88544	-849.03174	278.92737	728.86237	-851.09692	252.72766	625.18494	-799.75195	142.88399	572.05792	-834.46869	248.28442	563.84387	-772.19434	205.06110	537.26624	-854.05438	262.30057	484.07886	-772.33429	230.28395	203.84239	-659.81604	298.20200	156.98788	-623.36127	306.69092	158.52011	-557.46814	254.30898	163.57794	-593.69250	219.06650	172.87581	-720.31952	157.50502	223.83203	-676.51672	174.75407	162.55487	-798.37726	181.38797	183.60100	-527.93286	304.07248	146.33020	-517.93542	-72.67958	142.70180	-875.81384	-78.69555	141.10860	-882.67206	295.94012	144.48224	
112	2.220	-180.26645	139.85451	1384.53955	-381.89670	-43.77632	1194.53833	-415.06979	283.13904	1183.79407	-526.00641	100.73526	1025.75928	-776.43457	-10.54008	992.65155	-777.76886	232.41005	1011.77026	-953.14142	89.06049	1091.47290	-848.83997	-79.53329	862.20667	-759.70123	-8.10819	809.53296	-840.86420	-67.46664	746.40448	-818.54846	-38.91824	609.91187	-798.52332	71.65598	571.11420	-813.81635	-36.41045	562.25281	-753.82239	15.65051	528.28082	-833.78375	-51.35553	474.98361	-761.30988	-23.96744	205.80441	-647.72876	-68.13161	161.74905	-606.49384	-75.70164	156.38260	-549.85107	-27.42190	162.51022	-598.36322	26.64144	166.39368	-726.28613	65.28642	221.91100	-673.07953	50.94046	162.58925	-793.08313	34.60624	175.70955	-873.95105	285.24677	863.39349	-766.08368	206.43921	815.13629	-848.96344	278.61444	729.12384	-851.09784	252.50858	625.42926	-799.66498	142.68916	572.43225	-834.51758	248.08241	563.96594	-772.17102	205.06624	537.59198	-853.97845	262.01010	484.26770	-772.26263	230.19867	204.16467	-659.62732	298.15979	157.08992	-623.30243	306.63608	158.48235	-557.44312	254.31187	163.58588	-593.61072	219.09250	172.95123	-720.14264	157.50409	223.98062	-676.43604	174.84854	162.78436	-798.32178	181.49257	183.72998	-527.94489	304.11157	146.33694	-517.94745	-72.66419	142.69279	-875.83649	-78.69698	141.13692	-882.70221	295.97299	144.48865	
113	2.240	-180.95917	139.99811	1386.35559	-382.83685	-43.66972	1195.84851	-416.04297	283.41522	1185.36792	-526.58600	100.74393	1028.23340	-776.12231	-10.69108	992.96100	-777.66785	232.46129	1012.06342	-953.02679	88.88082	1091.59900	-848.54901	-79.74380	862.52985	-759.44415	-8.23543	809.92383	-840.53314	-67.59332	746.70233	-818.34424	-39.17156	610.30945	-798.37677	71.52715	571.38763	-813.49597	-36.51163	562.49146	-753.57440	15.49986	528.57013	-833.49640	-51.35596	475.27890	-761.14563	-24.10979	206.08714	-647.62543	-68.05562	161.88553	-606.36261	-75.62678	156.44287	-549.81812	-27.42851	162.51158	-598.35712	26.61742	166.39081	-726.28571	65.26613	222.02515	-673.00220	50.90294	162.68033	-792.93665	34.57082	175.89581	-873.86365	284.89282	863.49567	-765.84180	206.34509	815.37170	-848.81238	278.27148	729.38989	-851.08771	252.36754	625.69586	-799.49042	142.50670	572.69452	-834.53864	247.85732	564.07184	-772.09894	205.04538	537.87317	-853.89392	261.68683	484.48828	-772.23315	230.09903	204.37160	-659.45972	298.09641	157.19611	-623.26746	306.56577	158.45914	-557.41284	254.35075	163.61351	-593.54993	219.08507	172.99921	-720.04218	157.46393	224.05309	-676.29529	174.91870	162.96313	-798.27612	181.52757	183.80650	-527.96069	304.10638	146.33836	-517.95642	-72.62978	142.66176	-875.84387	-78.67656	141.12639	-882.72198	296.01559	144.50970	
114	2.260	-181.66064	140.18011	1388.28369	-383.83231	-43.68828	1197.41614	-417.17096	283.75107	1187.20691	-527.16937	100.76385	1030.89941	-775.78180	-10.85605	993.20837	-777.36621	232.67773	1012.50842	-952.88397	88.64152	1091.65149	-848.24585	-79.92014	862.74609	-759.08197	-8.40050	810.12988	-840.18884	-67.76228	746.87109	-818.06525	-39.33763	610.44623	-798.22986	71.42666	571.54327	-813.10565	-36.54128	562.57599	-753.32184	15.37219	528.78558	-833.18359	-51.32606	475.41995	-761.01428	-24.23958	206.23640	-647.52930	-67.98672	162.00381	-606.24097	-75.56779	156.47452	-549.79706	-27.42804	162.49951	-598.36566	26.59192	166.37689	-726.30658	65.33539	221.97247	-672.98785	50.88208	162.71051	-792.81158	34.56452	175.93143	-873.70416	284.52332	863.56232	-765.45984	206.27553	815.55865	-848.67529	277.99344	729.61566	-851.08295	252.27332	625.94104	-799.29675	142.35735	572.81689	-834.54144	247.62491	564.16187	-772.00464	204.95810	538.01172	-853.86768	261.38232	484.69809	-772.21936	230.02583	204.46729	-659.36475	298.03903	157.26501	-623.27753	306.46219	158.43465	-557.39093	254.42014	163.64583	-593.51654	219.06139	173.01825	-720.02271	157.39272	224.05132	-676.10724	174.94260	162.99551	-798.27551	181.47342	183.82686	-527.97266	304.05612	146.34116	-517.95923	-72.60676	142.62585	-875.83447	-78.64325	141.08302	-882.71765	296.03250	144.52652	
115	2.280	-182.37036	140.41631	1390.38745	-384.87039	-43.84093	1199.26660	-418.47552	284.17288	1189.33594	-527.75470	100.79520	1033.75684	-775.35834	-11.04600	993.40942	-776.93933	232.89928	1012.98230	-952.73718	88.34378	1091.61072	-847.85443	-80.00835	862.78833	-758.58209	-8.55931	810.13593	-839.80615	-67.92197	746.86847	-817.72247	-39.38939	610.29810	-797.98065	71.36394	571.58124	-812.70654	-36.49389	562.48444	-753.06427	15.28652	528.86572	-832.87262	-51.26854	475.36386	-760.92975	-24.25192	206.17227	-647.44482	-67.91135	162.10049	-606.17963	-75.50674	156.49272	-549.79279	-27.43417	162.47557	-598.35968	26.57518	166.32483	-726.30975	65.48235	221.77899	-673.01227	50.90565	162.69534	-792.71863	34.59426	175.73972	-873.52966	284.14923	863.59625	-765.00885	206.25549	815.65570	-848.59802	277.81198	729.76862	-851.06842	252.10391	626.09503	-799.08643	142.28580	572.78296	-834.52905	247.38628	564.22540	-771.91650	204.79462	538.00195	-853.88770	261.09485	484.83160	-772.21674	229.98564	204.47334	-659.34412	298.02338	157.28304	-623.31958	306.32834	158.40291	-557.38135	254.50450	163.67781	-593.49457	219.04173	173.02515	-720.05676	157.29689	223.98680	-675.92749	174.94621	162.87079	-798.30035	181.36342	183.77621	-527.98218	303.99719	146.34132	-517.95959	-72.61416	142.60220	-875.82404	-78.62292	141.04208	-882.70404	296.01001	144.52924	
116	2.300	-183.11154	140.71902	1392.74829	-385.96426	-44.02081	1201.34717	-419.92542	284.63593	1191.78345	-528.34027	100.83813	1036.80444	-774.80292	-11.23245	993.58752	-776.49786	232.97824	1013.39539	-952.56958	87.99358	1091.46863	-847.29321	-79.99831	862.61682	-757.98047	-8.67784	809.95514	-839.36639	-68.06016	746.69452	-817.33484	-39.35609	609.96100	-797.60852	71.34295	571.47028	-812.35870	-36.39185	562.27258	-752.80219	15.30285	528.75018	-832.62457	-51.21441	475.15302	-760.87939	-24.09307	205.90154	-647.38489	-67.80963	162.17772	-606.21051	-75.43970	156.52562	-549.80377	-27.46417	162.44470	-598.30853	26.59361	166.21341	-726.23340	65.68774	221.51079	-673.05481	50.98278	162.63768	-792.65186	34.67467	175.37756	-873.36755	283.76035	863.58160	-764.57037	206.28436	815.63965	-848.56769	277.67419	729.84027	-851.02545	251.75592	626.09894	-798.79999	142.33746	572.57831	-834.49005	247.14366	564.26251	-771.83636	204.58920	537.92670	-853.88666	260.80890	484.84924	-772.23120	229.96410	204.41911	-659.36279	298.05057	157.26353	-623.36121	306.18851	158.37410	-557.37866	254.58232	163.71123	-593.47339	219.03523	173.03818	-720.10187	157.18164	223.87892	-675.82758	174.95717	162.66629	-798.30951	181.25043	183.65022	-528.00037	303.96381	146.32347	-517.96198	-72.64505	142.60802	-875.82440	-78.62689	141.02411	-882.71143	295.96750	144.52567	
